/* XPM */
static char * toolbar_forw_2_xpm[] = {
"22 24 13 1",
" 	c None",
".	c #000000",
"+	c #181818",
"@	c #202020",
"#	c #323232",
"$	c #404040",
"%	c #4D4D4D",
"&	c #606060",
"*	c #7F7F7F",
"=	c #818181",
"-	c #A0A0A0",
";	c #676767",
">	c #C0C0C0",
"                      ",
"                      ",
" ..        ..         ",
" ++.       @@.        ",
" .#+.      .$@.       ",
" .%#+.     .&$@.      ",
" .%*#+.    .&*$@.     ",
" .+**#+.   .@**$@.    ",
"  +=**#+.   @-**$@.   ",
"  +;>**#+.  @*>**$@.  ",
"  +;>>**#+. @*>>**$@. ",
"  +;>>>**#+ @*>>>**$@ ",
"  +;>>>**#+ @*>>>**$@ ",
"  +;>>**#+. @*>>**$@. ",
"  +;>**#+.  @*>**$@.  ",
"  +=**#+.   @-**$@.   ",
" .&**#+.   .@**$@.    ",
" .&*#+.    .&*$@.     ",
" . #+.     .&$@.      ",
" .#+.      .$@.       ",
" ++.       @@.        ",
" ..        ..         ",
"                      ",
"                      "};
